<svg width="20" height="20" viewBox="0 0 20 20" fill="none" xmlns="http://www.w3.org/2000/svg">
<g opacity="0.6">
<path d="M1.66667 10.5083H15.8333" stroke="#292D32" stroke-width="1.5" stroke-miterlimit="10" stroke-linecap="round" stroke-linejoin="round"/>
<path d="M15.8333 8.56671V14.525C15.8083 16.9 15.1583 17.5 12.6833 17.5H4.8167C2.30003 17.5 1.66667 16.875 1.66667 14.3917V8.56671C1.66667 6.31671 2.19167 5.59171 4.16667 5.47504C4.36667 5.46671 4.58336 5.45837 4.8167 5.45837H12.6833C15.2 5.45837 15.8333 6.08337 15.8333 8.56671Z" stroke="#292D32" stroke-width="1.5" stroke-linecap="round" stroke-linejoin="round"/>
<path d="M18.3333 5.60833V11.4333C18.3333 13.6833 17.8083 14.4083 15.8333 14.525V8.56667C15.8333 6.08333 15.2 5.45833 12.6833 5.45833H4.8167C4.58336 5.45833 4.36667 5.46667 4.16667 5.475C4.19167 3.1 4.8417 2.5 7.3167 2.5H15.1833C17.7 2.5 18.3333 3.125 18.3333 5.60833Z" stroke="#292D32" stroke-width="1.5" stroke-linecap="round" stroke-linejoin="round"/>
<path d="M4.375 14.8417H5.80831" stroke="#292D32" stroke-width="1.5" stroke-miterlimit="10" stroke-linecap="round" stroke-linejoin="round"/>
<path d="M7.59166 14.8417H10.4583" stroke="#292D32" stroke-width="1.5" stroke-miterlimit="10" stroke-linecap="round" stroke-linejoin="round"/>
</g>
</svg>
