<svg width="20" height="20" viewBox="0 0 32 32" fill="none" xmlns="http://www.w3.org/2000/svg">
<path d="M32 9.26C31.9623 7.19581 31.1231 5.22723 29.66 3.77067L26.276 0.390667C26.0245 0.147789 25.6877 0.0133967 25.3381 0.0164346C24.9885 0.0194725 24.6541 0.159698 24.4069 0.406909C24.1597 0.654119 24.0195 0.988536 24.0164 1.33813C24.0134 1.68773 24.1478 2.02453 24.3907 2.276L26.6667 4.552V8C26.6667 8.70724 26.9476 9.38552 27.4477 9.88562C27.9478 10.3857 28.6261 10.6667 29.3333 10.6667V24C29.3333 24.3536 29.1929 24.6928 28.9428 24.9428C28.6928 25.1929 28.3536 25.3333 28 25.3333C27.6464 25.3333 27.3072 25.1929 27.0572 24.9428C26.8071 24.6928 26.6667 24.3536 26.6667 24V22.6667C26.6667 21.6058 26.2452 20.5884 25.4951 19.8382C24.7449 19.0881 23.7275 18.6667 22.6667 18.6667H21.3333V6.66667C21.3312 4.89921 20.6282 3.20474 19.3784 1.95496C18.1286 0.705176 16.4341 0.00211714 14.6667 0L6.66667 0C4.89921 0.00211714 3.20474 0.705176 1.95496 1.95496C0.705176 3.20474 0.00211714 4.89921 0 6.66667L0 25.3333C0.00211714 27.1008 0.705176 28.7953 1.95496 30.045C3.20474 31.2948 4.89921 31.9979 6.66667 32H14.6667C16.4341 31.9979 18.1286 31.2948 19.3784 30.045C20.6282 28.7953 21.3312 27.1008 21.3333 25.3333V21.3333H22.6667C23.0203 21.3333 23.3594 21.4738 23.6095 21.7239C23.8595 21.9739 24 22.313 24 22.6667V24C24 25.0609 24.4214 26.0783 25.1716 26.8284C25.9217 27.5786 26.9391 28 28 28C29.0609 28 30.0783 27.5786 30.8284 26.8284C31.5786 26.0783 32 25.0609 32 24C32 24 32 9.284 32 9.26ZM6.66667 2.66667H14.6667C15.7275 2.66667 16.7449 3.08809 17.4951 3.83824C18.2452 4.58839 18.6667 5.6058 18.6667 6.66667V12H2.66667V6.66667C2.66667 5.6058 3.08809 4.58839 3.83824 3.83824C4.58839 3.08809 5.6058 2.66667 6.66667 2.66667ZM18.6667 25.3333C18.6667 26.3942 18.2452 27.4116 17.4951 28.1618C16.7449 28.9119 15.7275 29.3333 14.6667 29.3333H6.66667C5.6058 29.3333 4.58839 28.9119 3.83824 28.1618C3.08809 27.4116 2.66667 26.3942 2.66667 25.3333V14.6667H18.6667V25.3333Z" fill="white"/>
</svg>
