<svg width="40" height="40" viewBox="0 0 40 40" fill="none" xmlns="http://www.w3.org/2000/svg">
<path d="M0 0H40V40H0V0Z" fill="#F63D37"/>
<path d="M35.577 7.59818L31.0897 14.8437C30.597 15.6666 30.672 16.2971 30.8969 16.9169L37.7189 34.3361H9.4672C6.92904 34.3361 4.9692 32.3056 4.9692 29.8798L4.94778 6.7005C5.01204 3.70825 9.38152 3.65482 9.4672 6.68981V28.4157C9.45649 29.0996 10.0669 29.8798 10.8594 29.8584H31.5609L26.2062 17.2802C26.0562 16.7994 25.9705 16.3185 25.9705 15.8376C25.9705 15.3032 26.2062 14.459 26.5489 13.7644L31.4645 5.68527C31.8286 4.95858 32.5676 4.467 33.4351 4.43494C34.6667 4.38151 35.7162 5.22575 35.759 6.51883C35.7697 6.77531 35.7055 7.3417 35.577 7.59818Z" fill="white"/>
<path d="M19.9946 22.2388V6.68982C19.9946 3.65482 24.4284 3.63345 24.4819 6.68982V22.4098C24.4819 26.0005 21.7831 28.3836 18.4953 28.3836C15.1968 28.3836 12.498 25.9471 12.498 22.4098V6.68982C12.498 3.65482 16.9746 3.65482 16.9746 6.68982V22.2388C16.9746 24.3227 19.9946 24.451 19.9946 22.2388Z" fill="white"/>
</svg>
