<svg width="15" height="18" viewBox="0 0 15 18" fill="none" xmlns="http://www.w3.org/2000/svg">
<path d="M14 5V13C14 16.2 13.1875 17 9.9375 17H5.0625C1.8125 17 1 16.2 1 13V5C1 1.8 1.8125 1 5.0625 1H9.9375C13.1875 1 14 1.8 14 5Z" stroke="white" stroke-width="1.5" stroke-linecap="round" stroke-linejoin="round"/>
<path d="M9.125 3.8H5.875" stroke="white" stroke-width="1.5" stroke-linecap="round" stroke-linejoin="round"/>
<path d="M7.50001 14.68C8.19554 14.68 8.75938 14.1248 8.75938 13.44C8.75938 12.7552 8.19554 12.2 7.50001 12.2C6.80447 12.2 6.24063 12.7552 6.24063 13.44C6.24063 14.1248 6.80447 14.68 7.50001 14.68Z" stroke="white" stroke-width="1.5" stroke-linecap="round" stroke-linejoin="round"/>
</svg>
